/* XPM */
static char *threadcoin16[] = {
/* columns rows colors chars-per-pixel */
"16 16 19 1 ",
"  c #497478",
". c #85CA74",
"X c #255C8B",
"o c #275C8B",
"O c #275B8C",
"+ c #275B8D",
"@ c #275C8C",
"# c #275C8D",
"$ c #265C8E",
"% c #285A8D",
"& c #285B8D",
"* c #285B8E",
"= c #285C8C",
"- c #285C8D",
"; c #295C8D",
": c #285D8D",
"> c #285C8E",
", c #02A591",
"< c None",
/* pixels */
"<<<<<<<<<<<<<<<<",
"<<<<<<<<<<<<<<<<",
"<<<<<<<<<<<<<<<<",
"@=====<<<$=&@<<<",
"&=&=*>><<===@@<<",
"<<**<>=<<==<<&$<",
"<<==<&&<<=$<<< <",
"<<==<$====&<<<.<",
"<<>=<&&<<>$<<<,<",
"<<=><*=<<=@<<<@<",
"<<>=<&><<=@<<@@<",
"<<==<$=<<>>>$@<<",
"<<<<<<<<<<<<<<<<",
"<<<<<<<<<<<<<<<<",
"<<<<<<<<<<<<<<<<",
"<<<<<<<<<<<<<<<<"
};
