/* XPM */
static char *threadcoin64[] = {
/* columns rows colors chars-per-pixel */
"64 64 39 1 ",
"  c #00A857",
". c #00A858",
"X c #00A859",
"o c #FDF10F",
"O c #FFF211",
"+ c #255B8B",
"@ c #265A8B",
"# c #275A8B",
"$ c #275B8B",
"% c #255A8D",
"& c #265A8C",
"* c #275A8C",
"= c #265B8C",
"- c #275B8C",
"; c #275A8D",
": c #265B8D",
"> c #275B8D",
", c #275B8E",
"< c #255C8D",
"1 c #265C8C",
"2 c #275C8C",
"3 c #275C8D",
"4 c #275D8D",
"5 c #265C8E",
"6 c #275C8E",
"7 c #285B8C",
"8 c #285B8D",
"9 c #285B8E",
"0 c #285C8C",
"q c #285C8D",
"w c #285D8D",
"e c #295D8D",
"r c #285C8E",
"t c #295C8E",
"y c #285D8E",
"u c #295D8E",
"i c #00AFEE",
"p c #00AFEF",
"a c None",
/* pixels */
"aaaaaaaaaaaaaaaaaaaaaaaaaaaaaaaaaaaaaaaaaaaaaaaaaaaaaaaaaaaaaaaa",
"aaaaaaaaaaaaaaaaaaaaaaaaaaaaaaaaaaaaaaaaaaaaaaaaaaaaaaaaaaaaaaaa",
"aaaaaaaaaaaaaaaaaaaaaaaaaaaaaaaaaaaaaaaaaaaaaaaaaaaaaaaaaaaaaaaa",
"aaaaaaaaaaaaaaaaaaaaaaaaaaaaaaaaaaaaaaaaaaaaaaaaaaaaaaaaaaaaaaaa",
"aaaaaaaaaaaaaaaaaaaaaaaaaaaaaaaaaaaaaaaaaaaaaaaaaaaaaaaaaaaaaaaa",
"aaaaaaaaaaaaaaaaaaaaaaaaaaaaaaaaaaaaaaaaaaaaaaaaaaaaaaaaaaaaaaaa",
"aaaaaaaaaaaaaaaaaaaaaaaaaaaaaaaaaaaaaaaaaaaaaaaaaaaaaaaaaaaaaaaa",
"aaaaaaaaaaaaaaaaaaaaaaaaaaaaaaaaaaaaaaaaaaaaaaaaaaaaaaaaaaaaaaaa",
"aaaaaaaaaaaaaaaaaaaaaaaaaaaaaaaaaaaaaaaaaaaaaaaaaaaaaaaaaaaaaaaa",
"aaaaaaaaaaaaaaaaaaaaaaaaaaaaaaaaaaaaaaaaaaaaaaaaaaaaaaaaaaaaaaaa",
"aaaaaaaaaaaaaaaaaaaaaaaaaaaaaaaaaaaaaaaaaaaaaaaaaaaaaaaaaaaaaaaa",
"aaaaaaaaaaaaaaaaaaaaaaaaaaaaaaaaaaaaaaaaaaaaaaaaaaaaaaaaaaaaaaaa",
"aaaaaaaaaaaaaaaaaaaaaaaaaaaaaaaaaaaaaaaaaaaaaaaaaaaaaaaaaaaaaaaa",
"aaaaaaaaaaaaaaaaaaaaaaaaaaaaaaaaaaaaaaaaaaaaaaaaaaaaaaaaaaaaaaaa",
"aqqqqqqqqqqqqqqqqqqqqqqqqqaaaaaaaaaaaaqqqqqqqqqq99;aaaaaaaaaaaaa",
"aquuuuuuuuuuuqqquuuuuuuuuuqaaaaaaaaaaquuuuuuuuuuquuqqqaaaaaaaaaa",
"aquuuuuuuuuuuuuuuuuuuuuuuuqaaaaaaaaaaquuuuuuuuuuquuuuuqaaaaaaaaa",
"aquuuuuuuuuuuuuuuuuuuuuuuuqaaaaaaaaaaquuuuuuuuuuqquuuuqqaaaaaaaa",
"auuuuuuuuuuuuuuuuuuuuuuuuuqaaaaaaaaaaquuuuuuuuuuuuuuuuuu6aaaaaaa",
"aquuuuuuuuuuuuuuuuuuuuuuuuqaaaaaaaaaaquuuuuq4u4uquuuuuuuq;aaaaaa",
"a;,,u,,,6qquuq266666qquuuuqaaaaaaaaaaqquuu22aaaa;9qqqquuuuaaaaaa",
"aaaaaaaaa6uuuq6aaaaaaquuuuqaaaaaaaaaaqqquuqaaaaaaaaaqquuuq6aaaaa",
"aaaaaaaaa6uuuueaaaaaauuuuuqaaaaaaaaaaquuuuqaaaaaaaaaaquuuuqaaaaa",
"aaaaaaaaaquuuuqaaaaaauuuuuqaaaaaaaaaa6uuuuuaaaaaaaaaaquuuuuaaaaa",
"aaaaaaaaa6qquuqaaaaaauuuuu6aaaaaaaaaa9qquuuaaaaaaaaaaaqquuq;aaaa",
"aaaaaaaaa6qquueaaaaaayuuuuqaaaaaaaaaa9uuuu4aaaaaaaaaaaqquu66aaaa",
"aaaaaaaaaquuuuqaaaaaauuuuqqaaaaaaaaaaquuuuuaaaaaaaaaaa6qyuyyaaaa",
"aaaaaaaaaquuqqeaaaaaayuuuq6aaaaaaaaaaquuuu4aaaaaaaaaaaaaaaaaaaaa",
"aaaaaaaaaquuuueaaaaaaquuuuuqqquuttuuuquuuuuaaaaaaaaaaaaaaaaaaaaa",
"aaaaaaaaaquuuuqaaaaaaquuuuuuuuuuuuuuuuuuuu4aaaaaaaaaOOOOOOOOOOaa",
"aaaaaaaaa6quuuqaaaaaayuuuuuuuuuuuuuuuuuuuuqaaaaaaaaaaaaaaaaaaaaa",
"aaaaaaaaa6uuuuqaaaaaauuuuuuuuuuuuuuuuuuuuuuaaaaaaaaaaaaaaaaaaaaa",
"aaaaaaaaa6uuuqqaaaaaayuuuuuuuuuuuuuuuuuuuuuaaaaaaaaaiippppppppaa",
"aaaaaaaaaquuuqeaaaaaayuuuuuuuuuuuuuuuuuuuuuaaaaaaaaaaaaaaaaaaaaa",
"aaaaaaaaa6uuuueaaaaaauuuuuuaaaaaaaaaa9uuuuuaaaaaaaaaaaaaaaaaaaaa",
"aaaaaaaaa6uuuuqaaaaaayuuuuqaaaaaaaaaa9uuuuuaaaaaaaaa XXXXXXXXXaa",
"aaaaaaaaa6uuuuqaaaaaauuuuuqaaaaaaaaaa9uuuuuaaaaaaaaaaaaaaaaaaaaa",
"aaaaaaaaa6uuuuqaaaaaayuuuuqaaaaaaaaaa9uuuuuaaaaaaaaaaaaaaaaaaaaa",
"aaaaaaaaa2uuquqaaaaaauuuuuqaaaaaaaaaa9uuuuqaaaaaaaaaaaququ46aaaa",
"aaaaaaaaa6uuqqeaaaaaauuuuuqaaaaaaaaaa9uuqqqaaaaaaaaaaauuuuu6aaaa",
"aaaaaaaaa6uuuueaaaaaayuuuuqaaaaaaaaaa9uuuuqaaaaaaaaaaquuuuqaaaaa",
"aaaaaaaaa6uuuuqaaaaaauuuuuqaaaaaaaaaa9uuuuqaaaaaaaaaauuuuu6aaaaa",
"aaaaaaaaa6uuuueaaaaaayuuuuqaaaaaaaaaa9uuuuqaaaaaaaaa6quuuuqaaaaa",
"aaaaaaaaa6uuuu2aaaaaayuuuuqaaaaaaaaaa9uuuuqaaaaaaaaquuuuuqaaaaaa",
"aaaaaaaaaquuqqqaaaaaayuuuuqaaaaaaaaaa9uuuuqqq9qq62equuuuq6aaaaaa",
"aaaaaaaaaquuqqqaaaaaauuuuuqaaaaaaaaaa9uuuuuuqquuquqquuuuqaaaaaaa",
"aaaaaaaaaquuuuqaaaaaayuuuuqaaaaaaaaaa9uuuuuuquuuuuuuuuqq2aaaaaaa",
"aaaaaaaaaquuuuqaaaaaayuuuqqaaaaaaaaaa9uuuuuuuuuuuuuuqqq6aaaaaaaa",
"aaaaaaaaa6uuuuqaaaaaauuuuuqaaaaaaaaaaququuuuuuqquuuu666aaaaaaaaa",
"aaaaaaaaa6qquuqaaaaaauuuuuqaaaaaaaaaaququuuuuuqquuuq66aaaaaaaaaa",
"aaaaaaaaaa66qqaaaaaaaa,;;6aaaaaaaaaaaa;6;6qqqq;662aaaaaaaaaaaaaa",
"aaaaaaaaaaaaaaaaaaaaaaaaaaaaaaaaaaaaaaaaaaaaaaaaaaaaaaaaaaaaaaaa",
"aaaaaaaaaaaaaaaaaaaaaaaaaaaaaaaaaaaaaaaaaaaaaaaaaaaaaaaaaaaaaaaa",
"aaaaaaaaaaaaaaaaaaaaaaaaaaaaaaaaaaaaaaaaaaaaaaaaaaaaaaaaaaaaaaaa",
"aaaaaaaaaaaaaaaaaaaaaaaaaaaaaaaaaaaaaaaaaaaaaaaaaaaaaaaaaaaaaaaa",
"aaaaaaaaaaaaaaaaaaaaaaaaaaaaaaaaaaaaaaaaaaaaaaaaaaaaaaaaaaaaaaaa",
"aaaaaaaaaaaaaaaaaaaaaaaaaaaaaaaaaaaaaaaaaaaaaaaaaaaaaaaaaaaaaaaa",
"aaaaaaaaaaaaaaaaaaaaaaaaaaaaaaaaaaaaaaaaaaaaaaaaaaaaaaaaaaaaaaaa",
"aaaaaaaaaaaaaaaaaaaaaaaaaaaaaaaaaaaaaaaaaaaaaaaaaaaaaaaaaaaaaaaa",
"aaaaaaaaaaaaaaaaaaaaaaaaaaaaaaaaaaaaaaaaaaaaaaaaaaaaaaaaaaaaaaaa",
"aaaaaaaaaaaaaaaaaaaaaaaaaaaaaaaaaaaaaaaaaaaaaaaaaaaaaaaaaaaaaaaa",
"aaaaaaaaaaaaaaaaaaaaaaaaaaaaaaaaaaaaaaaaaaaaaaaaaaaaaaaaaaaaaaaa",
"aaaaaaaaaaaaaaaaaaaaaaaaaaaaaaaaaaaaaaaaaaaaaaaaaaaaaaaaaaaaaaaa",
"aaaaaaaaaaaaaaaaaaaaaaaaaaaaaaaaaaaaaaaaaaaaaaaaaaaaaaaaaaaaaaaa"
};
