/* XPM */
static char *threadcoin128[] = {
/* columns rows colors chars-per-pixel */
"128 128 52 1 ",
"  c #00A656",
". c #00A657",
"X c #00A857",
"o c #00A759",
"O c #00A858",
"+ c #FDF010",
"@ c #FDF110",
"# c #FFF111",
"$ c #FFF212",
"% c #22588A",
"& c #25598B",
"* c #26588B",
"= c #255A8B",
"- c #255B8B",
"; c #265A8A",
": c #265A8B",
"> c #275B8B",
", c #255C8B",
"< c #25598C",
"1 c #26598C",
"2 c #255A8C",
"3 c #255B8C",
"4 c #265A8C",
"5 c #275A8C",
"6 c #265B8C",
"7 c #275B8C",
"8 c #265A8D",
"9 c #275A8D",
"0 c #275B8D",
"q c #265C8C",
"w c #275C8C",
"e c #265D8C",
"r c #275C8D",
"t c #265C8E",
"y c #275C8E",
"u c #275D8E",
"i c #285A8B",
"p c #285B8C",
"a c #285A8D",
"s c #285B8D",
"d c #285C8C",
"f c #285C8D",
"g c #295C8D",
"h c #285D8D",
"j c #285C8E",
"k c #295C8E",
"l c #285D8E",
"z c #295D8E",
"x c #00AEED",
"c c #00AEEF",
"v c #00AFEF",
"b c None",
/* pixels */
"bbbbbbbbbbbbbbbbbbbbbbbbbbbbbbbbbbbbbbbbbbbbbbbbbbbbbbbbbbbbbbbbbbbbbbbbbbbbbbbbbbbbbbbbbbbbbbbbbbbbbbbbbbbbbbbbbbbbbbbbbbbbbbbb",
"bbbbbbbbbbbbbbbbbbbbbbbbbbbbbbbbbbbbbbbbbbbbbbbbbbbbbbbbbbbbbbbbbbbbbbbbbbbbbbbbbbbbbbbbbbbbbbbbbbbbbbbbbbbbbbbbbbbbbbbbbbbbbbbb",
"bbbbbbbbbbbbbbbbbbbbbbbbbbbbbbbbbbbbbbbbbbbbbbbbbbbbbbbbbbbbbbbbbbbbbbbbbbbbbbbbbbbbbbbbbbbbbbbbbbbbbbbbbbbbbbbbbbbbbbbbbbbbbbbb",
"bbbbbbbbbbbbbbbbbbbbbbbbbbbbbbbbbbbbbbbbbbbbbbbbbbbbbbbbbbbbbbbbbbbbbbbbbbbbbbbbbbbbbbbbbbbbbbbbbbbbbbbbbbbbbbbbbbbbbbbbbbbbbbbb",
"bbbbbbbbbbbbbbbbbbbbbbbbbbbbbbbbbbbbbbbbbbbbbbbbbbbbbbbbbbbbbbbbbbbbbbbbbbbbbbbbbbbbbbbbbbbbbbbbbbbbbbbbbbbbbbbbbbbbbbbbbbbbbbbb",
"bbbbbbbbbbbbbbbbbbbbbbbbbbbbbbbbbbbbbbbbbbbbbbbbbbbbbbbbbbbbbbbbbbbbbbbbbbbbbbbbbbbbbbbbbbbbbbbbbbbbbbbbbbbbbbbbbbbbbbbbbbbbbbbb",
"bbbbbbbbbbbbbbbbbbbbbbbbbbbbbbbbbbbbbbbbbbbbbbbbbbbbbbbbbbbbbbbbbbbbbbbbbbbbbbbbbbbbbbbbbbbbbbbbbbbbbbbbbbbbbbbbbbbbbbbbbbbbbbbb",
"bbbbbbbbbbbbbbbbbbbbbbbbbbbbbbbbbbbbbbbbbbbbbbbbbbbbbbbbbbbbbbbbbbbbbbbbbbbbbbbbbbbbbbbbbbbbbbbbbbbbbbbbbbbbbbbbbbbbbbbbbbbbbbbb",
"bbbbbbbbbbbbbbbbbbbbbbbbbbbbbbbbbbbbbbbbbbbbbbbbbbbbbbbbbbbbbbbbbbbbbbbbbbbbbbbbbbbbbbbbbbbbbbbbbbbbbbbbbbbbbbbbbbbbbbbbbbbbbbbb",
"bbbbbbbbbbbbbbbbbbbbbbbbbbbbbbbbbbbbbbbbbbbbbbbbbbbbbbbbbbbbbbbbbbbbbbbbbbbbbbbbbbbbbbbbbbbbbbbbbbbbbbbbbbbbbbbbbbbbbbbbbbbbbbbb",
"bbbbbbbbbbbbbbbbbbbbbbbbbbbbbbbbbbbbbbbbbbbbbbbbbbbbbbbbbbbbbbbbbbbbbbbbbbbbbbbbbbbbbbbbbbbbbbbbbbbbbbbbbbbbbbbbbbbbbbbbbbbbbbbb",
"bbbbbbbbbbbbbbbbbbbbbbbbbbbbbbbbbbbbbbbbbbbbbbbbbbbbbbbbbbbbbbbbbbbbbbbbbbbbbbbbbbbbbbbbbbbbbbbbbbbbbbbbbbbbbbbbbbbbbbbbbbbbbbbb",
"bbbbbbbbbbbbbbbbbbbbbbbbbbbbbbbbbbbbbbbbbbbbbbbbbbbbbbbbbbbbbbbbbbbbbbbbbbbbbbbbbbbbbbbbbbbbbbbbbbbbbbbbbbbbbbbbbbbbbbbbbbbbbbbb",
"bbbbbbbbbbbbbbbbbbbbbbbbbbbbbbbbbbbbbbbbbbbbbbbbbbbbbbbbbbbbbbbbbbbbbbbbbbbbbbbbbbbbbbbbbbbbbbbbbbbbbbbbbbbbbbbbbbbbbbbbbbbbbbbb",
"bbbbbbbbbbbbbbbbbbbbbbbbbbbbbbbbbbbbbbbbbbbbbbbbbbbbbbbbbbbbbbbbbbbbbbbbbbbbbbbbbbbbbbbbbbbbbbbbbbbbbbbbbbbbbbbbbbbbbbbbbbbbbbbb",
"bbbbbbbbbbbbbbbbbbbbbbbbbbbbbbbbbbbbbbbbbbbbbbbbbbbbbbbbbbbbbbbbbbbbbbbbbbbbbbbbbbbbbbbbbbbbbbbbbbbbbbbbbbbbbbbbbbbbbbbbbbbbbbbb",
"bbbbbbbbbbbbbbbbbbbbbbbbbbbbbbbbbbbbbbbbbbbbbbbbbbbbbbbbbbbbbbbbbbbbbbbbbbbbbbbbbbbbbbbbbbbbbbbbbbbbbbbbbbbbbbbbbbbbbbbbbbbbbbbb",
"bbbbbbbbbbbbbbbbbbbbbbbbbbbbbbbbbbbbbbbbbbbbbbbbbbbbbbbbbbbbbbbbbbbbbbbbbbbbbbbbbbbbbbbbbbbbbbbbbbbbbbbbbbbbbbbbbbbbbbbbbbbbbbbb",
"bbbbbbbbbbbbbbbbbbbbbbbbbbbbbbbbbbbbbbbbbbbbbbbbbbbbbbbbbbbbbbbbbbbbbbbbbbbbbbbbbbbbbbbbbbbbbbbbbbbbbbbbbbbbbbbbbbbbbbbbbbbbbbbb",
"bbbbbbbbbbbbbbbbbbbbbbbbbbbbbbbbbbbbbbbbbbbbbbbbbbbbbbbbbbbbbbbbbbbbbbbbbbbbbbbbbbbbbbbbbbbbbbbbbbbbbbbbbbbbbbbbbbbbbbbbbbbbbbbb",
"bbbbbbbbbbbbbbbbbbbbbbbbbbbbbbbbbbbbbbbbbbbbbbbbbbbbbbbbbbbbbbbbbbbbbbbbbbbbbbbbbbbbbbbbbbbbbbbbbbbbbbbbbbbbbbbbbbbbbbbbbbbbbbbb",
"bbbbbbbbbbbbbbbbbbbbbbbbbbbbbbbbbbbbbbbbbbbbbbbbbbbbbbbbbbbbbbbbbbbbbbbbbbbbbbbbbbbbbbbbbbbbbbbbbbbbbbbbbbbbbbbbbbbbbbbbbbbbbbbb",
"bbbbbbbbbbbbbbbbbbbbbbbbbbbbbbbbbbbbbbbbbbbbbbbbbbbbbbbbbbbbbbbbbbbbbbbbbbbbbbbbbbbbbbbbbbbbbbbbbbbbbbbbbbbbbbbbbbbbbbbbbbbbbbbb",
"bbbbbbbbbbbbbbbbbbbbbbbbbbbbbbbbbbbbbbbbbbbbbbbbbbbbbbbbbbbbbbbbbbbbbbbbbbbbbbbbbbbbbbbbbbbbbbbbbbbbbbbbbbbbbbbbbbbbbbbbbbbbbbbb",
"bbbbbbbbbbbbbbbbbbbbbbbbbbbbbbbbbbbbbbbbbbbbbbbbbbbbbbbbbbbbbbbbbbbbbbbbbbbbbbbbbbbbbbbbbbbbbbbbbbbbbbbbbbbbbbbbbbbbbbbbbbbbbbbb",
"bbbbbbbbbbbbbbbbbbbbbbbbbbbbbbbbbbbbbbbbbbbbbbbbbbbbbbbbbbbbbbbbbbbbbbbbbbbbbbbbbbbbbbbbbbbbbbbbbbbbbbbbbbbbbbbbbbbbbbbbbbbbbbbb",
"bbbbbbbbbbbbbbbbbbbbbbbbbbbbbbbbbbbbbbbbbbbbbbbbbbbbbbbbbbbbbbbbbbbbbbbbbbbbbbbbbbbbbbbbbbbbbbbbbbbbbbbbbbbbbbbbbbbbbbbbbbbbbbbb",
"bbbbbbbbbbbbbbbbbbbbbbbbbbbbbbbbbbbbbbbbbbbbbbbbbbbbbbbbbbbbbbbbbbbbbbbbbbbbbbbbbbbbbbbbbbbbbbbbbbbbbbbbbbbbbbbbbbbbbbbbbbbbbbbb",
"bbeiqqqqile>eeilqqqqile>eeilqqqqqqqqqqqqqqqqqqqqqqqqqbbbbbbbbbbbbbbbbbbbbbbqqqqqqqqqqqqqqqqqqqqqq>lqqbbbbbbbbbbbbbbbbbbbbbbbbbbb",
"bbgllllllllllllllllllllllllllllluzzuuzuzzuuzzuuzzuzuqqbbbbbbbbbbbbbbbbbbbbblzquzuzuzuzuzuzuzuzuzlllkkylqqbbbbbbbbbbbbbbbbbbbbbbb",
"bbglzzllzzzzllzzzzllzzzzllzzzzllzzzzzzzzzzzzzzzzzzzzyubbbbbbbbbbbbbbbbbbbbbyzzzzzzzzzzzzzzzzzzzzllzzzzkkzkqbbbbbbbbbbbbbbbbbbbbb",
"bblzzlllzzzzllzzzlllzzzzllzzzlllzzzzzzzzzzzzzzzzzzzzkzbbbbbbbbbbbbbbbbbbbbbkzzzzzzzzzzzzzzzzzzzzllzzzzzkzkkkqbbbbbbbbbbbbbbbbbbb",
"bbllzzzzzzzzzzzzzzzzzzzzzzzzzzzzzzzzzzzzzzzzzzzzzzzzkubbbbbbbbbbbbbbbbbbbbbkzzzzzzzzzzzzzzzzzzzzlzzzzzzzzzzzzgbbbbbbbbbbbbbbbbbb",
"bbglzzzzzzzzzzzzzzzzzzzzzzzzzzzzzzzzzzzzzzzzzzzzzzzzyubbbbbbbbbbbbbbbbbbbbbyzzzzzzzzzzzzzzzzzzzzzzzzzzzzzzzzzlggbbbbbbbbbbbbbbbb",
"bbglzzzzzzzzzzzzzzzzzzzzzzzzzzzzzzzzzzzzzzzzzzzzzzzzkubbbbbbbbbbbbbbbbbbbbbkzzzzzzzzzzzzzzzzzzzzzzzzzzzzzzzzzzzg7bbbbbbbbbbbbbbb",
"bbglzzzzzzzzzzzzzzzzzzzzzzzzzzzzzzzzzzzzzzzzzzzzzzzzyubbbbbbbbbbbbbbbbbbbbbyzzzzzzzzzzzzzzzzzzzzzzzzzzzzzzzzzzzg7bbbbbbbbbbbbbbb",
"bbglllzzzzzzzzzzzzzzzzzzzzzzzzzzzzzzzzzzzzzzzzzzzzzzkubbbbbbbbbbbbbbbbbbbbbkzzzzzzzzzzzzzzzzzzzzzzzzzzzzzzzzzzzzk7bbbbbbbbbbbbbb",
"bbllzlzzzzzzzzzzzzzzzzzzzzzzzzzzzzzzzzzzzzzzzzzzzzzzyubbbbbbbbbbbbbbbbbbbbbyzzzzzzzzzzzzzzzzzzzzzzzzzzzzzzzzzzzzkkqbbbbbbbbbbbbb",
"bbllzzzzzzzzzzzzzzzzzzzzzzzzzzzzzzzzzzzzzzzzzzzzzzzzkubbbbbbbbbbbbbbbbbbbbbkzzzzzzzzzzzzzzzzzzllzzzzzzzzzzzzzzzzkzqbbbbbbbbbbbbb",
"bb7lzzzzzzzzzzzzzzzzzzzzzzzzzzzzzzzzzzzzzzzzzzzzzzzzyubbbbbbbbbbbbbbbbbbbbbyzzzzzzzzzzzzzzzzzlllzzzzzzzzzzzzzzzzkkzqbbbbbbbbbbbb",
"bblzzzzzzzzzzzzzkkzkzzzzzzzzkqzzzzzzzzzzzzkkzzzzzzzzyubbbbbbbbbbbbbbbbbbbbbkkkzzzzzzzgiggig77777gg>glllllzzzzzzzzzzubbbbbbbbbbbb",
"bbbbbbbbbbbbbbbbbbqkzzzzzzzzk3bbbbbbbbbbbbqzzzzzzzzzkubbbbbbbbbbbbbbbbbbbbbkkkzzzzzzzibbbbbbbbbbbbbbb7llzzzzzzzzzzzzzbbbbbbbbbbb",
"bbbbbbbbbbbbbbbbbbqkzzzzzzzzzbbbbbbbbbbbbbyzzzzzzzzzyubbbbbbbbbbbbbbbbbbbbbkkzzzzzzzlibbbbbbbbbbbbbbbbb7gzzzzzzzzzzzkbbbbbbbbbbb",
"bbbbbbbbbbbbbbbbbbykzzzzzzzzzbbbbbbbbbbbbbyzzzzzzzzzkubbbbbbbbbbbbbbbbbbbbbgzzzzzzzzlibbbbbbbbbbbbbbbbbbgzzzzzzzzzkkkqbbbbbbbbbb",
"bbbbbbbbbbbbbbbbbbqkzzzzzzzzzbbbbbbbbbbbbbyzzzzzzzzzyybbbbbbbbbbbbbbbbbbbbbgzzzzzzzzlibbbbbbbbbbbbbbbbbbblllllzzzzzzkqbbbbbbbbbb",
"bbbbbbbbbbbbbbbbbbkkzzzzzzzzzbbbbbbbbbbbbbyzzzzzzzzzkkbbbbbbbbbbbbbbbbbbbbblzzzzzzzzlibbbbbbbbbbbbbbbbbbbbglzzzzzzzzklbbbbbbbbbb",
"bbbbbbbbbbbbbbbbbbqzzzzzzzzzzbbbbbbbbbbbbbyuzzzzzzzzyybbbbbbbbbbbbbbbbbbbbbgzzzzzzzzlibbbbbbbbbbbbbbbbbbbbglzzzzzzzzzzqbbbbbbbbb",
"bbbbbbbbbbbbbbbbbbkzzzzzzzzzzbbbbbbbbbbbbbyzzzzzzzzkkybbbbbbbbbbbbbbbbbbbbblzzzzzzzzzibbbbbbbbbbbbbbbbbbbbblzzzzzzzzkkqbbbbbbbbb",
"bbbbbbbbbbbbbbbbbbggglllzzzzzbbbbbbbbbbbbbyzzzzzzzzzyubbbbbbbbbbbbbbbbbbbbbkzzzzzzzzzibbbbbbbbbbbbbbbbbbbbblzzkkzzzzzzkbbbbbbbbb",
"bbbbbbbbbbbbbbbbbbglllzlzzzzzbbbbbbbbbbbbbyzzzzzzzzzyubbbbbbbbbbbbbbbbbbbbbkzzzzzzzzzibbbbbbbbbbbbbbbbbbbbbqlzzkzzzzzkubbbbbbbbb",
"bbbbbbbbbbbbbbbbbbglzzzzzzzzzbbbbbbbbbbbbbyzzzzzzzzzkubbbbbbbbbbbbbbbbbbbbbyzzzzzzzzzibbbbbbbbbbbbbbbbbbbbbbllkkzzzzkkq7bbbbbbbb",
"bbbbbbbbbbbbbbbbbbglzzzzzzzzzbbbbbbbbbbbbbyzzzzzzzzzyubbbbbbbbbbbbbbbbbbbbbkzzzzzzzzzibbbbbbbbbbbbbbbbbbbbbbllkkzzzzkkkqbbbbbbbb",
"bbbbbbbbbbbbbbbbbbgkzzzzzzzzzbbbbbbbbbbbbbyzzzzzzzzzkubbbbbbbbbbbbbbbbbbbbblzzzzzzzzzibbbbbbbbbbbbbbbbbbbbbb7llkzzkkkkk7bbbbbbbb",
"bbbbbbbbbbbbbbbbbb7kzzzzzzzzzbbbbbbbbbbbbbyzzzzzzzzzyubbbbbbbbbbbbbbbbbbbbblzzzzzzzzzibbbbbbbbbbbbbbbbbbbbbb7ggkkkkkkkk7bbbbbbbb",
"bbbbbbbbbbbbbbbbbbggzzzzzzzzzbbbbbbbbbbbbbyzzzzzzzzzkybbbbbbbbbbbbbbbbbbbbblzzzzzzzzzibbbbbbbbbbbbbbbbbbbbbbb7gglg7g7k77bbbbbbbb",
"bbbbbbbbbbbbbbbbbbgzzzzzzzzzzbbbbbbbbbbbbbyzzzzzzzzzylbbbbbbbbbbbbbbbbbbbbquzzzzzzzzzibbbbbbbbbbbbbbbbbbbbbbbbbbbbbbbbbbbbbbbbbb",
"bbbbbbbbbbbbbbbbbb7kzzzzzzzzzbbbbbbbbbbbbbyzzzzzzzzzkqllllgggggggggggllllggggkkkzzzzzibbbbbbbbbbbbbbbbbbbbbbbbbbbbbbbbbbbbbbbbbb",
"bbbbbbbbbbbbbbbbbbykzzzzzzzzzbbbbbbbbbbbbbyzzzzzzzzzzzkklllgzzgggggzlllzllzzkkkkzzzzzibbbbbbbbbbbbbbbbbbb$$$$$$$$$$$$$$$$$$$$bbb",
"bbbbbbbbbbbbbbbbbbqkzzzzzzzzzbbbbbbbbbbbbbyuzzzzzzzzzzzzzzllzzzzkkzzlzzzllzzzzzzzzzzzibbbbbbbbbbbbbbbbbbb$$$$$$$$$$$$$$$$$$$$bbb",
"bbbbbbbbbbbbbbbbbbkkzzzzzzzzzbbbbbbbbbbbbbyzzzzzzzzzzzzzzzzlzzzzkkzzzzzzllzzzzzzzzzzzibbbbbbbbbbbbbbbbbbb$$$$$$+$$+$$$$$$$$$+bbb",
"bbbbbbbbbbbbbbbbbbykkkzzzzzzzbbbbbbbbbbbbbyuzzzzzzzzzzzzzzzzzzzzkkzzzzzzzzzzzzzzzzzzlibbbbbbbbbbbbbbbbbbbbbbbbbbbbbbbbbbbbbbbbbb",
"bbbbbbbbbbbbbbbbbbqkkkzzzzzzzbbbbbbbbbbbbbyzzzzzzzzzzzzzzzzzzzzzkkzzzzzzzzzzzzzzzzzzlibbbbbbbbbbbbbbbbbbbbbbbbbbbbbbbbbbbbbbbbbb",
"bbbbbbbbbbbbbbbbbbqkzzzzzzzzzbbbbbbbbbbbbbyzzzzzzzzzzzzzzzzzzzzzzzzzzzzzzzzzzzzzzzzzlibbbbbbbbbbbbbbbbbbbbbbbbbbbbbbbbbbbbbbbbbb",
"bbbbbbbbbbbbbbbbbbkkzzzzzzzzzbbbbbbbbbbbbbyzzzzzzzzzzzzzzzzzzzzzzzzzzzzzzzzzzzzzzzzzlibbbbbbbbbbbbbbbbbbbvvvvvvvvvvcvvvvvvvccbbb",
"bbbbbbbbbbbbbbbbbbqzzzzzzzzzzbbbbbbbbbbbbbyzzzzzzzzzzzzzzzzzzzzzzzzzlzzzzzlzzzzzzzzzzibbbbbbbbbbbbbbbbbbbcvvvvvvvvvvcvvvvvvvcbbb",
"bbbbbbbbbbbbbbbbbbykzzzzzzzzzbbbbbbbbbbbbbyzzzzzzzzzzzzzzzzzzzzzzzzzllzzzzllzzzzzzzzzibbbbbbbbbbbbbbbbbbbccccccccccccccccccccbbb",
"bbbbbbbbbbbbbbbbbbkkzzzzzzzzzbbbbbbbbbbbbbyuzzzzzzzzzzkzzzkkzzkzllzzllllzlllzzzzzzzzzibbbbbbbbbbbbbbbbbbbbbbbbbbbbbbbbbbbbbbbbbb",
"bbbbbbbbbbbbbbbbbbqzzzzzzzzzzbbbbbbbbbbbbbyzzzzzzzzzkqlqlqlqlqlqllql7llllgggzzzzzzzzzibbbbbbbbbbbbbbbbbbbbbbbbbbbbbbbbbbbbbbbbbb",
"bbbbbbbbbbbbbbbbbbqkzzzzzzzzzbbbbbbbbbbbbbyzzzzzzzzzkqbbbbbbbbbbbbbbbbbbbbglzzzzzzzzzibbbbbbbbbbbbbbbbbbbbbbbbbbbbbbbbbbbbbbbbbb",
"bbbbbbbbbbbbbbbbbbkkzzzzzzzzzbbbbbbbbbbbbbyzzzzzzzzzyzbbbbbbbbbbbbbbbbbbbbbgzzzzzzzzzibbbbbbbbbbbbbbbbbbbOOOOOOOOOOOOOOOOOOOXbbb",
"bbbbbbbbbbbbbbbbbbqkzzzzzzzzzbbbbbbbbbbbbbyuzzzzzzzzkubbbbbbbbbbbbbbbbbbbbblzzzzzzzzzibbbbbbbbbbbbbbbbbbboooooooOoooooooooOo bbb",
"bbbbbbbbbbbbbbbbbbykzzzzzzzzzbbbbbbbbbbbbbyzzzzzzzzzykbbbbbbbbbbbbbbbbbbbbbgzzzzzzzzzibbbbbbbbbbbbbbbbbbb                   bbbb",
"bbbbbbbbbbbbbbbbbbykkzzzzzzzzbbbbbbbbbbbbbyzzzzzzzzzkubbbbbbbbbbbbbbbbbbbbbkkkkzzzzzzibbbbbbbbbbbbbbbbbbbbbbbbbbbbbbbbbbbbbbbbbb",
"bbbbbbbbbbbbbbbbbbqkkzzzzzzzzbbbbbbbbbbbbbyzzzzzzzzzyzbbbbbbbbbbbbbbbbbbbbb7kkzzzzzzzibbbbbbbbbbbbbbbbbbbbbbbbbbbbbbbbbbbbbbbbbb",
"bbbbbbbbbbbbbbbbbbqkzzzzzzzzzbbbbbbbbbbbbbyzzzzzzzzzkubbbbbbbbbbbbbbbbbbbbbgzzzzzzzzzibbbbbbbbbbbbbbbbbbbbbbilgglggglggbbbbbbbbb",
"bbbbbbbbbbbbbbbbbbkkzzzzzzzzzbbbbbbbbbbbbbyzzzzzzzzzyzbbbbbbbbbbbbbbbbbbbbblzzzzzzzzzibbbbbbbbbbbbbbbbbbbbbbgllzllzllllbbbbbbbbb",
"bbbbbbbbbbbbbbbbbbqzzzzzzzzzzbbbbbbbbbbbbbyzzzzzzzzzkubbbbbbbbbbbbbbbbbbbbbkzzzzzzzzzibbbbbbbbbbbbbbbbbbbbbbllzzlzzzzzgbbbbbbbbb",
"bbbbbbbbbbbbbbbbbbykzzzzzzzzzbbbbbbbbbbbbbyzzzzzzzzzyzbbbbbbbbbbbbbbbbbbbbbyzzzzzzzzzibbbbbbbbbbbbbbbbbbbbbillzzzzzzzllbbbbbbbbb",
"bbbbbbbbbbbbbbbbbbkkzzzzzzzzzbbbbbbbbbbbbbyzzzzzzzzzkubbbbbbbbbbbbbbbbbbbbbkzzzzzzzzzibbbbbbbbbbbbbbbbbbbbbglzzzzzzzlllbbbbbbbbb",
"bbbbbbbbbbbbbbbbbbqzzzzzzzzzzbbbbbbbbbbbbbyzzzzzzzzzyzbbbbbbbbbbbbbbbbbbbbbyzzzzzzzzzibbbbbbbbbbbbbbbbbbbbbllzzzzzzzlqgbbbbbbbbb",
"bbbbbbbbbbbbbbbbbbqkkkzzzzzzzbbbbbbbbbbbbbyuzzzzzzzzkubbbbbbbbbbbbbbbbbbbbbyzzzzzzzzzgbbbbbbbbbbbbbbbbbbbbglzzzzzzzzllbbbbbbbbbb",
"bbbbbbbbbbbbbbbbbbkkzzzzzzzzzbbbbbbbbbbbbbyzzzzzzzzzyzbbbbbbbbbbbbbbbbbbbbbkzzzzzzzzzlbbbbbbbbbbbbbbbbbbbbgzzzzzzzzzl7bbbbbbbbbb",
"bbbbbbbbbbbbbbbbbbqkzzzzzzzzzbbbbbbbbbbbbbyzzzzzzzzzkubbbbbbbbbbbbbbbbbbbbbyzzzzzzzzlibbbbbbbbbbbbbbbbbbbizzzzzzzzzzg7bbbbbbbbbb",
"bbbbbbbbbbbbbbbbbbykzzzzzzzzzbbbbbbbbbbbbbyzzzzzzzzzyzbbbbbbbbbbbbbbbbbbbbbkzzzzzzzzlibbbbbbbbbbbbbbbbbbbgzzzzzzzzzzlgbbbbbbbbbb",
"bbbbbbbbbbbbbbbbbbqkzzzzzzzzzbbbbbbbbbbbbbyzzzzzzzzzkubbbbbbbbbbbbbbbbbbbbbyzzzzzzzzlibbbbbbbbbbbbbbbbbb>lllzzzzzzzzgbbbbbbbbbbb",
"bbbbbbbbbbbbbbbbbbkkzzzzzzzzzbbbbbbbbbbbbbyzzzzzzzzzyzbbbbbbbbbbbbbbbbbbbbbkzzzzzzzzlibbbbbbbbbbbbbbbbbqllzlzzzzzzllgbbbbbbbbbbb",
"bbbbbbbbbbbbbbbbbbqzzzzzzzzzzbbbbbbbbbbbbbyuzzzzzzzzkubbbbbbbbbbbbbbbbbbbbbkzzzzzzzzlibbbbbbbbbbbbbbbbgkzzzzzzzzzzzlbbbbbbbbbbbb",
"bbbbbbbbbbbbbbbbbbyzzzzzzzzzzbbbbbbbbbbbbbyzzzzzzzzzyzbbbbbbbbbbbbbbbbbbbbbyzzzzzzzllgbbbbbbbbbbbbbbgggzzzzzzzzzzzzgbbbbbbbbbbbb",
"bbbbbbbbbbbbbbbbbbqkkkzzzzzzzbbbbbbbbbbbbbyuzzzzzzzzyzbbbbbbbbbbbbbbbbbbbbbkzzzzzzzzzzzzzzzzzzzzllzzzzzzzzzzzzzzlllbbbbbbbbbbbbb",
"bbbbbbbbbbbbbbbbbbkkzzzzzzzzzbbbbbbbbbbbbbyzzzzzzzzzkubbbbbbbbbbbbbbbbbbbbbyzzzzzzzzzzzzzzzzzzzzllzzzzzzzzzzzzzzllgbbbbbbbbbbbbb",
"bbbbbbbbbbbbbbbbbbqkzzzzzzzzzbbbbbbbbbbbbbyzzzzzzzzzyzbbbbbbbbbbbbbbbbbbbbbkzzzzzzzzzzzzzzzzzzzzzzzzzzzzzzzzzzzzzgbbbbbbbbbbbbbb",
"bbbbbbbbbbbbbbbbbbykzzzzzzzzzbbbbbbbbbbbbbyzzzzzzzzzkubbbbbbbbbbbbbbbbbbbbbyzzzzzzzzzzzzzzzzzzzzzzzzzzzzzzzzzzzzgibbbbbbbbbbbbbb",
"bbbbbbbbbbbbbbbbbbqkzzzzzzzzzbbbbbbbbbbbbbyzzzzzzzzzllbbbbbbbbbbbbbbbbbbbbbkzzzzzzzzzzzzzzzzzzzzzzzzzzzzzzzzzlll7bbbbbbbbbbbbbbb",
"bbbbbbbbbbbbbbbbbbkkzzzzzzzzzbbbbbbbbbbbbbyzzzzzzzzzglbbbbbbbbbbbbbbbbbbbbbkzzzzzzzzzzzzzzzzzzzzzzzzzzzzzzzzzll7bbbbbbbbbbbbbbbb",
"bbbbbbbbbbbbbbbbbbqzzzzzzzzzzbbbbbbbbbbbbbyuzzzzzzkk7kbbbbbbbbbbbbbbbbbbbbbyzzzzzzzzzzzzzzzzzzzzzzzzzzzzzzzzzzlbbbbbbbbbbbbbbbbb",
"bbbbbbbbbbbbbbbbbbkzzzzzzzzzzbbbbbbbbbbbbbyzzzzzzzzkkybbbbbbbbbbbbbbbbbbbbbkzzzzzzzzzzzzzzzzzzzzzzzzzzzzzzzzzlbbbbbbbbbbbbbbbbbb",
"bbbbbbbbbbbbbbbbbbqkzzzzzzzzzbbbbbbbbbbbbbllzzzzzzzzglbbbbbbbbbbbbbbbbbbbbbgzzzzzzzzzzzzzzzzzzzlzzzzzzzzllzggbbbbbbbbbbbbbbbbbbb",
"bbbbbbbbbbbbbbbbbbkkzzzzzzzzzbbbbbbbbbbbbbglzzzzzzzzglbbbbbbbbbbbbbbbbbbbbbgzzzzzzzzzzzzzzzzzzzlzzzzzzzzllg>bbbbbbbbbbbbbbbbbbbb",
"bbbbbbbbbbbbbbbbbbqklzkkzzzzzbbbbbbbbbbbbb7kllllzzzzglbbbbbbbbbbbbbbbbbbbbblzzzzzzzzzzzzzzzzzzllzzzzllzzlgbbbbbbbbbbbbbbbbbbbbbb",
"bbbbbbbbbbbbbbbbbbqklllkzkkkzbbbbbbbbbbbbb7lggglkkkkggbbbbbbbbbbbbbbbbbbbbbigkkzgggggkkzggggkkglzkkigggibbbbbbbbbbbbbbbbbbbbbbbb",
"bbbbbbbbbbbbbbbbbbbbbbbbbbbbbbbbbbbbbbbbbbbbbbbbbbbbbbbbbbbbbbbbbbbbbbbbbbbbbbbbbbbbbbbbbbbbbbbbbbbbbbbbbbbbbbbbbbbbbbbbbbbbbbbb",
"bbbbbbbbbbbbbbbbbbbbbbbbbbbbbbbbbbbbbbbbbbbbbbbbbbbbbbbbbbbbbbbbbbbbbbbbbbbbbbbbbbbbbbbbbbbbbbbbbbbbbbbbbbbbbbbbbbbbbbbbbbbbbbbb",
"bbbbbbbbbbbbbbbbbbbbbbbbbbbbbbbbbbbbbbbbbbbbbbbbbbbbbbbbbbbbbbbbbbbbbbbbbbbbbbbbbbbbbbbbbbbbbbbbbbbbbbbbbbbbbbbbbbbbbbbbbbbbbbbb",
"bbbbbbbbbbbbbbbbbbbbbbbbbbbbbbbbbbbbbbbbbbbbbbbbbbbbbbbbbbbbbbbbbbbbbbbbbbbbbbbbbbbbbbbbbbbbbbbbbbbbbbbbbbbbbbbbbbbbbbbbbbbbbbbb",
"bbbbbbbbbbbbbbbbbbbbbbbbbbbbbbbbbbbbbbbbbbbbbbbbbbbbbbbbbbbbbbbbbbbbbbbbbbbbbbbbbbbbbbbbbbbbbbbbbbbbbbbbbbbbbbbbbbbbbbbbbbbbbbbb",
"bbbbbbbbbbbbbbbbbbbbbbbbbbbbbbbbbbbbbbbbbbbbbbbbbbbbbbbbbbbbbbbbbbbbbbbbbbbbbbbbbbbbbbbbbbbbbbbbbbbbbbbbbbbbbbbbbbbbbbbbbbbbbbbb",
"bbbbbbbbbbbbbbbbbbbbbbbbbbbbbbbbbbbbbbbbbbbbbbbbbbbbbbbbbbbbbbbbbbbbbbbbbbbbbbbbbbbbbbbbbbbbbbbbbbbbbbbbbbbbbbbbbbbbbbbbbbbbbbbb",
"bbbbbbbbbbbbbbbbbbbbbbbbbbbbbbbbbbbbbbbbbbbbbbbbbbbbbbbbbbbbbbbbbbbbbbbbbbbbbbbbbbbbbbbbbbbbbbbbbbbbbbbbbbbbbbbbbbbbbbbbbbbbbbbb",
"bbbbbbbbbbbbbbbbbbbbbbbbbbbbbbbbbbbbbbbbbbbbbbbbbbbbbbbbbbbbbbbbbbbbbbbbbbbbbbbbbbbbbbbbbbbbbbbbbbbbbbbbbbbbbbbbbbbbbbbbbbbbbbbb",
"bbbbbbbbbbbbbbbbbbbbbbbbbbbbbbbbbbbbbbbbbbbbbbbbbbbbbbbbbbbbbbbbbbbbbbbbbbbbbbbbbbbbbbbbbbbbbbbbbbbbbbbbbbbbbbbbbbbbbbbbbbbbbbbb",
"bbbbbbbbbbbbbbbbbbbbbbbbbbbbbbbbbbbbbbbbbbbbbbbbbbbbbbbbbbbbbbbbbbbbbbbbbbbbbbbbbbbbbbbbbbbbbbbbbbbbbbbbbbbbbbbbbbbbbbbbbbbbbbbb",
"bbbbbbbbbbbbbbbbbbbbbbbbbbbbbbbbbbbbbbbbbbbbbbbbbbbbbbbbbbbbbbbbbbbbbbbbbbbbbbbbbbbbbbbbbbbbbbbbbbbbbbbbbbbbbbbbbbbbbbbbbbbbbbbb",
"bbbbbbbbbbbbbbbbbbbbbbbbbbbbbbbbbbbbbbbbbbbbbbbbbbbbbbbbbbbbbbbbbbbbbbbbbbbbbbbbbbbbbbbbbbbbbbbbbbbbbbbbbbbbbbbbbbbbbbbbbbbbbbbb",
"bbbbbbbbbbbbbbbbbbbbbbbbbbbbbbbbbbbbbbbbbbbbbbbbbbbbbbbbbbbbbbbbbbbbbbbbbbbbbbbbbbbbbbbbbbbbbbbbbbbbbbbbbbbbbbbbbbbbbbbbbbbbbbbb",
"bbbbbbbbbbbbbbbbbbbbbbbbbbbbbbbbbbbbbbbbbbbbbbbbbbbbbbbbbbbbbbbbbbbbbbbbbbbbbbbbbbbbbbbbbbbbbbbbbbbbbbbbbbbbbbbbbbbbbbbbbbbbbbbb",
"bbbbbbbbbbbbbbbbbbbbbbbbbbbbbbbbbbbbbbbbbbbbbbbbbbbbbbbbbbbbbbbbbbbbbbbbbbbbbbbbbbbbbbbbbbbbbbbbbbbbbbbbbbbbbbbbbbbbbbbbbbbbbbbb",
"bbbbbbbbbbbbbbbbbbbbbbbbbbbbbbbbbbbbbbbbbbbbbbbbbbbbbbbbbbbbbbbbbbbbbbbbbbbbbbbbbbbbbbbbbbbbbbbbbbbbbbbbbbbbbbbbbbbbbbbbbbbbbbbb",
"bbbbbbbbbbbbbbbbbbbbbbbbbbbbbbbbbbbbbbbbbbbbbbbbbbbbbbbbbbbbbbbbbbbbbbbbbbbbbbbbbbbbbbbbbbbbbbbbbbbbbbbbbbbbbbbbbbbbbbbbbbbbbbbb",
"bbbbbbbbbbbbbbbbbbbbbbbbbbbbbbbbbbbbbbbbbbbbbbbbbbbbbbbbbbbbbbbbbbbbbbbbbbbbbbbbbbbbbbbbbbbbbbbbbbbbbbbbbbbbbbbbbbbbbbbbbbbbbbbb",
"bbbbbbbbbbbbbbbbbbbbbbbbbbbbbbbbbbbbbbbbbbbbbbbbbbbbbbbbbbbbbbbbbbbbbbbbbbbbbbbbbbbbbbbbbbbbbbbbbbbbbbbbbbbbbbbbbbbbbbbbbbbbbbbb",
"bbbbbbbbbbbbbbbbbbbbbbbbbbbbbbbbbbbbbbbbbbbbbbbbbbbbbbbbbbbbbbbbbbbbbbbbbbbbbbbbbbbbbbbbbbbbbbbbbbbbbbbbbbbbbbbbbbbbbbbbbbbbbbbb",
"bbbbbbbbbbbbbbbbbbbbbbbbbbbbbbbbbbbbbbbbbbbbbbbbbbbbbbbbbbbbbbbbbbbbbbbbbbbbbbbbbbbbbbbbbbbbbbbbbbbbbbbbbbbbbbbbbbbbbbbbbbbbbbbb",
"bbbbbbbbbbbbbbbbbbbbbbbbbbbbbbbbbbbbbbbbbbbbbbbbbbbbbbbbbbbbbbbbbbbbbbbbbbbbbbbbbbbbbbbbbbbbbbbbbbbbbbbbbbbbbbbbbbbbbbbbbbbbbbbb",
"bbbbbbbbbbbbbbbbbbbbbbbbbbbbbbbbbbbbbbbbbbbbbbbbbbbbbbbbbbbbbbbbbbbbbbbbbbbbbbbbbbbbbbbbbbbbbbbbbbbbbbbbbbbbbbbbbbbbbbbbbbbbbbbb",
"bbbbbbbbbbbbbbbbbbbbbbbbbbbbbbbbbbbbbbbbbbbbbbbbbbbbbbbbbbbbbbbbbbbbbbbbbbbbbbbbbbbbbbbbbbbbbbbbbbbbbbbbbbbbbbbbbbbbbbbbbbbbbbbb",
"bbbbbbbbbbbbbbbbbbbbbbbbbbbbbbbbbbbbbbbbbbbbbbbbbbbbbbbbbbbbbbbbbbbbbbbbbbbbbbbbbbbbbbbbbbbbbbbbbbbbbbbbbbbbbbbbbbbbbbbbbbbbbbbb",
"bbbbbbbbbbbbbbbbbbbbbbbbbbbbbbbbbbbbbbbbbbbbbbbbbbbbbbbbbbbbbbbbbbbbbbbbbbbbbbbbbbbbbbbbbbbbbbbbbbbbbbbbbbbbbbbbbbbbbbbbbbbbbbbb",
"bbbbbbbbbbbbbbbbbbbbbbbbbbbbbbbbbbbbbbbbbbbbbbbbbbbbbbbbbbbbbbbbbbbbbbbbbbbbbbbbbbbbbbbbbbbbbbbbbbbbbbbbbbbbbbbbbbbbbbbbbbbbbbbb"
};
