/* XPM */
static char *threadcoin32[] = {
/* columns rows colors chars-per-pixel */
"32 32 41 1 ",
"  c #587F6F",
". c #557D72",
"X c #00A657",
"o c #00A358",
"O c #00A259",
"+ c #00A25A",
"@ c #61846B",
"# c #FDEF0E",
"$ c #FFF10E",
"% c #245A8B",
"& c #255A8B",
"* c #265B8B",
"= c #275B8B",
"- c #255C8B",
"; c #255A8C",
": c #275A8C",
"> c #275B8C",
", c #265A8D",
"< c #275A8D",
"1 c #265B8D",
"2 c #275B8D",
"3 c #265B8E",
"4 c #275C8C",
"5 c #265D8C",
"6 c #265C8D",
"7 c #275C8D",
"8 c #265C8E",
"9 c #275C8E",
"0 c #285B8D",
"q c #285C8D",
"w c #295C8D",
"e c #285D8D",
"r c #285C8E",
"t c #295C8E",
"y c #285D8E",
"u c #295D8E",
"i c #00ADD7",
"p c #00AEDA",
"a c #1BB5D6",
"s c #1DB5D4",
"d c None",
/* pixels */
"dddddddddddddddddddddddddddddddd",
"dddddddddddddddddddddddddddddddd",
"dddddddddddddddddddddddddddddddd",
"dddddddddddddddddddddddddddddddd",
"dddddddddddddddddddddddddddddddd",
"dddddddddddddddddddddddddddddddd",
"dddddddddddddddddddddddddddddddd",
"4qqqqqqqq2u44dddddd4u2qq22dddddd",
"0qquuuuuuuuuuddddddruuuuquuqdddd",
"2quuuuuuuuuuudddddd9u844q8qqqddd",
"dddd8uqqdddu8dddddduudddddqqqddd",
"dddduuqdddduudddddduuddddd22u4dd",
"dddduuqdddduudddddduuddddddqu2dd",
"dddd8uqdddduqqdddd22udddddd .@dd",
"dddd8uqdddduu2uuuuquudddddd$$##d",
"dddd8uqdddduuuuuuuuuuddddddssaad",
"dddd0uudddduuuqq4q8uuddddddppiid",
"ddddquudddduudddddduudddddd+++Xd",
"dddd4uudddduudddddduudddddd24ddd",
"dddd8uqdddduudddddd9udddddduq4dd",
"dddd8uqdddduudddddduuddddd2uqddd",
"dddd8uqdddduuddddddrudddd2q84ddd",
"dddd8uqdddduqdddddd9uuuuquuu4ddd",
"dddd8uqdddduqdddddduuuuuuu44dddd",
"dddddq2ddddq2dddddd2qqqq22dddddd",
"dddddddddddddddddddddddddddddddd",
"dddddddddddddddddddddddddddddddd",
"dddddddddddddddddddddddddddddddd",
"dddddddddddddddddddddddddddddddd",
"dddddddddddddddddddddddddddddddd",
"dddddddddddddddddddddddddddddddd",
"dddddddddddddddddddddddddddddddd"
};
